<mxfile host="app.diagrams.net" agent="Mozilla/5.0 (Windows NT 10.0; Win64; x64) AppleWebKit/537.36 (KHTML, like Gecko) Chrome/134.0.0.0 Safari/537.36" version="26.0.4">
  <diagram name="Page-1" id="_7pLlShB3S5cmW3fV5yR">
    <mxGraphModel dx="1049" dy="580" grid="1" gridSize="10" guides="1" tooltips="1" connect="1" arrows="1" fold="1" page="1" pageScale="1" pageWidth="827" pageHeight="1169" math="0" shadow="0">
      <root>
        <mxCell id="0" />
        <mxCell id="1" parent="0" />
        <mxCell id="Qz1WO6FvaBmOyX3FeWTq-13" value="&lt;span style=&quot;&quot;&gt;&lt;font style=&quot;font-size: 14px;&quot;&gt;&lt;sup&gt;- grid: std::vector&amp;lt;char&amp;gt;&amp;nbsp; &amp;nbsp;&lt;/sup&gt;&lt;/font&gt;&lt;/span&gt;&lt;div&gt;&lt;font style=&quot;font-size: 14px;&quot;&gt;&lt;sup&gt;&lt;span style=&quot;&quot;&gt;- columnYPosition: int&amp;nbsp;&lt;/span&gt;&lt;span style=&quot;&quot;&gt;&lt;/span&gt;&lt;/sup&gt;&lt;/font&gt;&lt;/div&gt;&lt;div&gt;&lt;font style=&quot;font-size: 14px;&quot;&gt;&lt;sup&gt;&lt;span style=&quot;&quot;&gt;&amp;nbsp;- columnXPosition: int&amp;nbsp;&amp;nbsp;&lt;/span&gt;&lt;span style=&quot;&quot;&gt;&lt;/span&gt;&lt;/sup&gt;&lt;/font&gt;&lt;/div&gt;&lt;div&gt;&lt;span style=&quot;&quot;&gt;&lt;font style=&quot;font-size: 14px;&quot;&gt;&lt;sup&gt;- falling_chars: std::vector&amp;lt;char&amp;gt;&lt;/sup&gt;&lt;/font&gt;&lt;/span&gt;&lt;/div&gt;&lt;div&gt;&lt;span style=&quot;&quot;&gt;&lt;font style=&quot;font-size: 14px;&quot;&gt;&lt;sup&gt;- ACTIVATION_PROBABILITY: int&amp;nbsp;&lt;/sup&gt;&lt;/font&gt;&lt;/span&gt;&lt;/div&gt;" style="rounded=0;whiteSpace=wrap;html=1;align=left;fillColor=#b0e3e6;strokeColor=#0e8088;" vertex="1" parent="1">
          <mxGeometry x="430" y="220" width="220" height="140" as="geometry" />
        </mxCell>
        <mxCell id="Qz1WO6FvaBmOyX3FeWTq-16" value="&lt;div style=&quot;text-align: left;&quot;&gt;&lt;font style=&quot;&quot;&gt;&lt;font style=&quot;font-size: 13px;&quot;&gt;&amp;nbsp;&lt;font style=&quot;&quot;&gt;MatrixColumn&amp;nbsp;&lt;/font&gt;&lt;/font&gt;&lt;/font&gt;&lt;/div&gt;" style="rounded=0;whiteSpace=wrap;html=1;fillColor=#b1ddf0;strokeColor=#10739e;" vertex="1" parent="1">
          <mxGeometry x="430" y="190" width="220" height="30" as="geometry" />
        </mxCell>
        <mxCell id="Qz1WO6FvaBmOyX3FeWTq-19" value="&lt;span style=&quot;font-size: 11.6667px;&quot;&gt;+ MatrixColumn(y&lt;/span&gt;&lt;span style=&quot;font-size: 11.6667px;&quot;&gt;Position&lt;/span&gt;&lt;span style=&quot;font-size: 11.6667px;&quot;&gt;, xPosition)&lt;/span&gt;&lt;div&gt;&lt;span style=&quot;font-size: 11.6667px;&quot;&gt;+ update()&amp;nbsp; &amp;nbsp;&lt;/span&gt;&lt;/div&gt;&lt;div&gt;&lt;span style=&quot;font-size: 11.6667px;&quot;&gt;+ init_column()&amp;nbsp; &amp;nbsp; &amp;nbsp;&amp;nbsp;&lt;/span&gt;&lt;/div&gt;&lt;div&gt;&lt;span style=&quot;font-size: 11.6667px;&quot;&gt;+ shift_grid_down()&amp;nbsp;&lt;/span&gt;&lt;/div&gt;&lt;div&gt;&lt;span style=&quot;font-size: 11.6667px;&quot;&gt;+ print_new_char()&amp;nbsp;&lt;/span&gt;&lt;/div&gt;" style="rounded=0;whiteSpace=wrap;html=1;align=left;fillColor=#d0cee2;strokeColor=#56517e;" vertex="1" parent="1">
          <mxGeometry x="430" y="360" width="220" height="90" as="geometry" />
        </mxCell>
        <mxCell id="Qz1WO6FvaBmOyX3FeWTq-28" style="edgeStyle=orthogonalEdgeStyle;rounded=0;orthogonalLoop=1;jettySize=auto;html=1;exitX=1;exitY=0.5;exitDx=0;exitDy=0;entryX=0;entryY=0.5;entryDx=0;entryDy=0;strokeWidth=2;" edge="1" parent="1" source="Qz1WO6FvaBmOyX3FeWTq-20" target="Qz1WO6FvaBmOyX3FeWTq-16">
          <mxGeometry relative="1" as="geometry" />
        </mxCell>
        <mxCell id="Qz1WO6FvaBmOyX3FeWTq-20" value="&lt;div style=&quot;text-align: left;&quot;&gt;&lt;span style=&quot;font-size: 13px;&quot;&gt;DigitalRain&lt;/span&gt;&lt;/div&gt;" style="rounded=0;whiteSpace=wrap;html=1;fillColor=#b1ddf0;strokeColor=#10739e;" vertex="1" parent="1">
          <mxGeometry x="130" y="190" width="200" height="30" as="geometry" />
        </mxCell>
        <mxCell id="Qz1WO6FvaBmOyX3FeWTq-21" value="&amp;nbsp;+ ExecuteDigitalRain(): void" style="rounded=0;whiteSpace=wrap;html=1;align=left;fillColor=#d0cee2;strokeColor=#56517e;" vertex="1" parent="1">
          <mxGeometry x="130" y="290" width="200" height="70" as="geometry" />
        </mxCell>
        <mxCell id="Qz1WO6FvaBmOyX3FeWTq-23" value="&lt;div style=&quot;text-align: left;&quot;&gt;&lt;font style=&quot;&quot;&gt;&lt;font style=&quot;font-size: 13px;&quot;&gt;&amp;nbsp;&lt;font style=&quot;&quot;&gt;helperFunctions&lt;/font&gt;&lt;/font&gt;&lt;/font&gt;&lt;/div&gt;" style="rounded=0;whiteSpace=wrap;html=1;fillColor=#b1ddf0;strokeColor=#10739e;" vertex="1" parent="1">
          <mxGeometry x="134" y="465" width="220" height="30" as="geometry" />
        </mxCell>
        <mxCell id="Qz1WO6FvaBmOyX3FeWTq-24" value="&lt;span style=&quot;font-size: 11.6667px;&quot;&gt;+ GetTerminalSize(width: int, height: int)&lt;/span&gt;" style="rounded=0;whiteSpace=wrap;html=1;align=left;fillColor=#b0e3e6;strokeColor=#0e8088;" vertex="1" parent="1">
          <mxGeometry x="134" y="495" width="220" height="90" as="geometry" />
        </mxCell>
        <mxCell id="Qz1WO6FvaBmOyX3FeWTq-25" value="&lt;div&gt;&lt;span style=&quot;background-color: transparent; color: light-dark(rgb(0, 0, 0), rgb(255, 255, 255));&quot;&gt;-&amp;nbsp; columns: vector&amp;lt;MatrixColumn&amp;gt;&lt;/span&gt;&amp;nbsp; &amp;nbsp;&lt;/div&gt;" style="rounded=0;whiteSpace=wrap;html=1;align=left;fillColor=#b0e3e6;strokeColor=#0e8088;" vertex="1" parent="1">
          <mxGeometry x="130" y="220" width="200" height="70" as="geometry" />
        </mxCell>
        <mxCell id="Qz1WO6FvaBmOyX3FeWTq-29" value="&lt;span style=&quot;font-size: 13px;&quot;&gt;Inherits&lt;/span&gt;" style="text;whiteSpace=wrap;html=1;" vertex="1" parent="1">
          <mxGeometry x="354" y="180" width="120" height="40" as="geometry" />
        </mxCell>
      </root>
    </mxGraphModel>
  </diagram>
</mxfile>
